<?xml version="1.0" encoding="utf-8" standalone="no"?>
<!DOCTYPE svg PUBLIC "-//W3C//DTD SVG 1.1//EN"
  "http://www.w3.org/Graphics/SVG/1.1/DTD/svg11.dtd">
<svg xmlns:xlink="http://www.w3.org/1999/xlink" width="937.44pt" height="390.053812pt" viewBox="0 0 937.44 390.053812" xmlns="http://www.w3.org/2000/svg" version="1.1">
 <metadata>
  <rdf:RDF xmlns:dc="http://purl.org/dc/elements/1.1/" xmlns:cc="http://creativecommons.org/ns#" xmlns:rdf="http://www.w3.org/1999/02/22-rdf-syntax-ns#">
   <cc:Work>
    <dc:type rdf:resource="http://purl.org/dc/dcmitype/StillImage"/>
    <dc:date>2026-09-12T21:09:34.928167</dc:date>
    <dc:format>image/svg+xml</dc:format>
    <dc:creator>
     <cc:Agent>
      <dc:title>Matplotlib v3.10.3, https://matplotlib.org/</dc:title>
     </cc:Agent>
    </dc:creator>
   </cc:Work>
  </rdf:RDF>
 </metadata>
 <defs>
  <style type="text/css">*{stroke-linejoin: round; stroke-linecap: butt}</style>
 </defs>
 <g id="figure_1">
  <g id="patch_1">
   <path d="M 0 390.053812 
L 937.44 390.053812 
L 937.44 0 
L 0 0 
z
" style="fill: #ffffff"/>
  </g>
  <g id="axes_1">
   <g id="patch_2">
    <path d="M 43.49 339.608 
L 459.54 339.608 
L 459.54 72.528 
L 43.49 72.528 
z
" style="fill: #ffffff"/>
   </g>
   <g id="matplotlib.axis_1">
    <g id="xtick_1">
     <g id="line2d_1">
      <path d="M 62.401364 339.608 
L 62.401364 72.528 
" clip-path="url(#pf75cdf8315)" style="fill: none; stroke: #e1e0d9; stroke-width: 0.6; stroke-linecap: square"/>
     </g>
     <g id="line2d_2">
      <defs>
       <path id="m66def40f16" d="M 0 0 
L 0 3.5 
" style="stroke: #52514e; stroke-width: 0.8"/>
      </defs>
      <g>
       <use xlink:href="#m66def40f16" x="62.401364" y="339.608" style="fill: #52514e; stroke: #52514e; stroke-width: 0.8"/>
      </g>
     </g>
     <g id="text_1">
      <text style="font-size: 10px; font-family: 'Segoe UI', 'DejaVu Sans'; text-anchor: middle; fill: #52514e" x="62.401364" y="354.011125" transform="rotate(-0 62.401364 354.011125)">2013</text>
     </g>
    </g>
    <g id="xtick_2">
     <g id="line2d_3">
      <path d="M 165.554256 339.608 
L 165.554256 72.528 
" clip-path="url(#pf75cdf8315)" style="fill: none; stroke: #e1e0d9; stroke-width: 0.6; stroke-linecap: square"/>
     </g>
     <g id="line2d_4">
      <g>
       <use xlink:href="#m66def40f16" x="165.554256" y="339.608" style="fill: #52514e; stroke: #52514e; stroke-width: 0.8"/>
      </g>
     </g>
     <g id="text_2">
      <text style="font-size: 10px; font-family: 'Segoe UI', 'DejaVu Sans'; text-anchor: middle; fill: #52514e" x="165.554256" y="354.011125" transform="rotate(-0 165.554256 354.011125)">2016</text>
     </g>
    </g>
    <g id="xtick_3">
     <g id="line2d_5">
      <path d="M 268.707149 339.608 
L 268.707149 72.528 
" clip-path="url(#pf75cdf8315)" style="fill: none; stroke: #e1e0d9; stroke-width: 0.6; stroke-linecap: square"/>
     </g>
     <g id="line2d_6">
      <g>
       <use xlink:href="#m66def40f16" x="268.707149" y="339.608" style="fill: #52514e; stroke: #52514e; stroke-width: 0.8"/>
      </g>
     </g>
     <g id="text_3">
      <text style="font-size: 10px; font-family: 'Segoe UI', 'DejaVu Sans'; text-anchor: middle; fill: #52514e" x="268.707149" y="354.011125" transform="rotate(-0 268.707149 354.011125)">2019</text>
     </g>
    </g>
    <g id="xtick_4">
     <g id="line2d_7">
      <path d="M 371.860041 339.608 
L 371.860041 72.528 
" clip-path="url(#pf75cdf8315)" style="fill: none; stroke: #e1e0d9; stroke-width: 0.6; stroke-linecap: square"/>
     </g>
     <g id="line2d_8">
      <g>
       <use xlink:href="#m66def40f16" x="371.860041" y="339.608" style="fill: #52514e; stroke: #52514e; stroke-width: 0.8"/>
      </g>
     </g>
     <g id="text_4">
      <text style="font-size: 10px; font-family: 'Segoe UI', 'DejaVu Sans'; text-anchor: middle; fill: #52514e" x="371.860041" y="354.011125" transform="rotate(-0 371.860041 354.011125)">2022</text>
     </g>
    </g>
    <g id="xtick_5">
     <g id="line2d_9">
      <path d="M 440.628636 339.608 
L 440.628636 72.528 
" clip-path="url(#pf75cdf8315)" style="fill: none; stroke: #e1e0d9; stroke-width: 0.6; stroke-linecap: square"/>
     </g>
     <g id="line2d_10">
      <g>
       <use xlink:href="#m66def40f16" x="440.628636" y="339.608" style="fill: #52514e; stroke: #52514e; stroke-width: 0.8"/>
      </g>
     </g>
     <g id="text_5">
      <text style="font-size: 10px; font-family: 'Segoe UI', 'DejaVu Sans'; text-anchor: middle; fill: #52514e" x="440.628636" y="354.011125" transform="rotate(-0 440.628636 354.011125)">2024</text>
     </g>
    </g>
   </g>
   <g id="matplotlib.axis_2">
    <g id="ytick_1">
     <g id="line2d_11">
      <path d="M 43.49 282.302941 
L 459.54 282.302941 
" clip-path="url(#pf75cdf8315)" style="fill: none; stroke: #e1e0d9; stroke-width: 0.6; stroke-linecap: square"/>
     </g>
     <g id="line2d_12">
      <defs>
       <path id="m57066c472d" d="M 0 0 
L -3.5 0 
" style="stroke: #52514e; stroke-width: 0.8"/>
      </defs>
      <g>
       <use xlink:href="#m57066c472d" x="43.49" y="282.302941" style="fill: #52514e; stroke: #52514e; stroke-width: 0.8"/>
      </g>
     </g>
     <g id="text_6">
      <text style="font-size: 10px; font-family: 'Segoe UI', 'DejaVu Sans'; text-anchor: end; fill: #52514e" x="36.49" y="286.004504" transform="rotate(-0 36.49 286.004504)">5</text>
     </g>
    </g>
    <g id="ytick_2">
     <g id="line2d_13">
      <path d="M 43.49 223.472536 
L 459.54 223.472536 
" clip-path="url(#pf75cdf8315)" style="fill: none; stroke: #e1e0d9; stroke-width: 0.6; stroke-linecap: square"/>
     </g>
     <g id="line2d_14">
      <g>
       <use xlink:href="#m57066c472d" x="43.49" y="223.472536" style="fill: #52514e; stroke: #52514e; stroke-width: 0.8"/>
      </g>
     </g>
     <g id="text_7">
      <text style="font-size: 10px; font-family: 'Segoe UI', 'DejaVu Sans'; text-anchor: end; fill: #52514e" x="36.49" y="227.174098" transform="rotate(-0 36.49 227.174098)">10</text>
     </g>
    </g>
    <g id="ytick_3">
     <g id="line2d_15">
      <path d="M 43.49 164.642131 
L 459.54 164.642131 
" clip-path="url(#pf75cdf8315)" style="fill: none; stroke: #e1e0d9; stroke-width: 0.6; stroke-linecap: square"/>
     </g>
     <g id="line2d_16">
      <g>
       <use xlink:href="#m57066c472d" x="43.49" y="164.642131" style="fill: #52514e; stroke: #52514e; stroke-width: 0.8"/>
      </g>
     </g>
     <g id="text_8">
      <text style="font-size: 10px; font-family: 'Segoe UI', 'DejaVu Sans'; text-anchor: end; fill: #52514e" x="36.49" y="168.343693" transform="rotate(-0 36.49 168.343693)">15</text>
     </g>
    </g>
    <g id="ytick_4">
     <g id="line2d_17">
      <path d="M 43.49 105.811725 
L 459.54 105.811725 
" clip-path="url(#pf75cdf8315)" style="fill: none; stroke: #e1e0d9; stroke-width: 0.6; stroke-linecap: square"/>
     </g>
     <g id="line2d_18">
      <g>
       <use xlink:href="#m57066c472d" x="43.49" y="105.811725" style="fill: #52514e; stroke: #52514e; stroke-width: 0.8"/>
      </g>
     </g>
     <g id="text_9">
      <text style="font-size: 10px; font-family: 'Segoe UI', 'DejaVu Sans'; text-anchor: end; fill: #52514e" x="36.49" y="109.513288" transform="rotate(-0 36.49 109.513288)">20</text>
     </g>
    </g>
    <g id="text_10">
     <text style="font-size: 10px; font-family: 'Segoe UI', 'DejaVu Sans'; text-anchor: middle; fill: #52514e" x="19.40875" y="206.068" transform="rotate(-90 19.40875 206.068)">median radiance (nW/cm2/sr)</text>
    </g>
   </g>
   <g id="line2d_19">
    <path d="M 62.401364 138.642985 
L 96.785661 165.45323 
L 131.169959 168.39631 
L 165.554256 151.890508 
L 199.938554 143.249074 
L 234.322851 134.417736 
L 268.707149 142.594171 
L 303.091446 145.66296 
L 337.475744 147.683864 
L 371.860041 140.425824 
L 406.244339 117.708284 
L 440.628636 84.668 
" clip-path="url(#pf75cdf8315)" style="fill: none; stroke: #52514e; stroke-width: 2; stroke-linecap: square"/>
    <defs>
     <path id="mf8e2c6997d" d="M 0 2 
C 0.530406 2 1.03916 1.789267 1.414214 1.414214 
C 1.789267 1.03916 2 0.530406 2 0 
C 2 -0.530406 1.789267 -1.03916 1.414214 -1.414214 
C 1.03916 -1.789267 0.530406 -2 0 -2 
C -0.530406 -2 -1.03916 -1.789267 -1.414214 -1.414214 
C -1.789267 -1.03916 -2 -0.530406 -2 0 
C -2 0.530406 -1.789267 1.03916 -1.414214 1.414214 
C -1.03916 1.789267 -0.530406 2 0 2 
z
" style="stroke: #52514e"/>
    </defs>
    <g clip-path="url(#pf75cdf8315)">
     <use xlink:href="#mf8e2c6997d" x="62.401364" y="138.642985" style="fill: #52514e; stroke: #52514e"/>
     <use xlink:href="#mf8e2c6997d" x="96.785661" y="165.45323" style="fill: #52514e; stroke: #52514e"/>
     <use xlink:href="#mf8e2c6997d" x="131.169959" y="168.39631" style="fill: #52514e; stroke: #52514e"/>
     <use xlink:href="#mf8e2c6997d" x="165.554256" y="151.890508" style="fill: #52514e; stroke: #52514e"/>
     <use xlink:href="#mf8e2c6997d" x="199.938554" y="143.249074" style="fill: #52514e; stroke: #52514e"/>
     <use xlink:href="#mf8e2c6997d" x="234.322851" y="134.417736" style="fill: #52514e; stroke: #52514e"/>
     <use xlink:href="#mf8e2c6997d" x="268.707149" y="142.594171" style="fill: #52514e; stroke: #52514e"/>
     <use xlink:href="#mf8e2c6997d" x="303.091446" y="145.66296" style="fill: #52514e; stroke: #52514e"/>
     <use xlink:href="#mf8e2c6997d" x="337.475744" y="147.683864" style="fill: #52514e; stroke: #52514e"/>
     <use xlink:href="#mf8e2c6997d" x="371.860041" y="140.425824" style="fill: #52514e; stroke: #52514e"/>
     <use xlink:href="#mf8e2c6997d" x="406.244339" y="117.708284" style="fill: #52514e; stroke: #52514e"/>
     <use xlink:href="#mf8e2c6997d" x="440.628636" y="84.668" style="fill: #52514e; stroke: #52514e"/>
    </g>
   </g>
   <g id="line2d_20">
    <path d="M 62.401364 327.468 
L 96.785661 323.322651 
L 131.169959 323.553852 
L 165.554256 319.397578 
L 199.938554 302.453116 
L 234.322851 303.078853 
L 268.707149 305.330124 
L 303.091446 304.080011 
L 337.475744 303.748663 
L 371.860041 301.60807 
L 406.244339 297.984919 
L 440.628636 290.777289 
" clip-path="url(#pf75cdf8315)" style="fill: none; stroke: #eda100; stroke-width: 2; stroke-linecap: square"/>
    <defs>
     <path id="m6f57e22292" d="M 0 2 
C 0.530406 2 1.03916 1.789267 1.414214 1.414214 
C 1.789267 1.03916 2 0.530406 2 0 
C 2 -0.530406 1.789267 -1.03916 1.414214 -1.414214 
C 1.03916 -1.789267 0.530406 -2 0 -2 
C -0.530406 -2 -1.03916 -1.789267 -1.414214 -1.414214 
C -1.789267 -1.03916 -2 -0.530406 -2 0 
C -2 0.530406 -1.789267 1.03916 -1.414214 1.414214 
C -1.03916 1.789267 -0.530406 2 0 2 
z
" style="stroke: #eda100"/>
    </defs>
    <g clip-path="url(#pf75cdf8315)">
     <use xlink:href="#m6f57e22292" x="62.401364" y="327.468" style="fill: #eda100; stroke: #eda100"/>
     <use xlink:href="#m6f57e22292" x="96.785661" y="323.322651" style="fill: #eda100; stroke: #eda100"/>
     <use xlink:href="#m6f57e22292" x="131.169959" y="323.553852" style="fill: #eda100; stroke: #eda100"/>
     <use xlink:href="#m6f57e22292" x="165.554256" y="319.397578" style="fill: #eda100; stroke: #eda100"/>
     <use xlink:href="#m6f57e22292" x="199.938554" y="302.453116" style="fill: #eda100; stroke: #eda100"/>
     <use xlink:href="#m6f57e22292" x="234.322851" y="303.078853" style="fill: #eda100; stroke: #eda100"/>
     <use xlink:href="#m6f57e22292" x="268.707149" y="305.330124" style="fill: #eda100; stroke: #eda100"/>
     <use xlink:href="#m6f57e22292" x="303.091446" y="304.080011" style="fill: #eda100; stroke: #eda100"/>
     <use xlink:href="#m6f57e22292" x="337.475744" y="303.748663" style="fill: #eda100; stroke: #eda100"/>
     <use xlink:href="#m6f57e22292" x="371.860041" y="301.60807" style="fill: #eda100; stroke: #eda100"/>
     <use xlink:href="#m6f57e22292" x="406.244339" y="297.984919" style="fill: #eda100; stroke: #eda100"/>
     <use xlink:href="#m6f57e22292" x="440.628636" y="290.777289" style="fill: #eda100; stroke: #eda100"/>
    </g>
   </g>
   <g id="line2d_21">
    <path d="M 62.401364 290.474731 
L 96.785661 292.577627 
L 131.169959 292.616575 
L 165.554256 288.545149 
L 199.938554 278.345549 
L 234.322851 276.100938 
L 268.707149 284.588201 
L 303.091446 284.187902 
L 337.475744 285.296162 
L 371.860041 285.501047 
L 406.244339 279.288826 
L 440.628636 271.947324 
" clip-path="url(#pf75cdf8315)" style="fill: none; stroke: #d03b3b; stroke-width: 2; stroke-linecap: square"/>
    <defs>
     <path id="ma712981682" d="M 0 2 
C 0.530406 2 1.03916 1.789267 1.414214 1.414214 
C 1.789267 1.03916 2 0.530406 2 0 
C 2 -0.530406 1.789267 -1.03916 1.414214 -1.414214 
C 1.03916 -1.789267 0.530406 -2 0 -2 
C -0.530406 -2 -1.03916 -1.789267 -1.414214 -1.414214 
C -1.789267 -1.03916 -2 -0.530406 -2 0 
C -2 0.530406 -1.789267 1.03916 -1.414214 1.414214 
C -1.03916 1.789267 -0.530406 2 0 2 
z
" style="stroke: #d03b3b"/>
    </defs>
    <g clip-path="url(#pf75cdf8315)">
     <use xlink:href="#ma712981682" x="62.401364" y="290.474731" style="fill: #d03b3b; stroke: #d03b3b"/>
     <use xlink:href="#ma712981682" x="96.785661" y="292.577627" style="fill: #d03b3b; stroke: #d03b3b"/>
     <use xlink:href="#ma712981682" x="131.169959" y="292.616575" style="fill: #d03b3b; stroke: #d03b3b"/>
     <use xlink:href="#ma712981682" x="165.554256" y="288.545149" style="fill: #d03b3b; stroke: #d03b3b"/>
     <use xlink:href="#ma712981682" x="199.938554" y="278.345549" style="fill: #d03b3b; stroke: #d03b3b"/>
     <use xlink:href="#ma712981682" x="234.322851" y="276.100938" style="fill: #d03b3b; stroke: #d03b3b"/>
     <use xlink:href="#ma712981682" x="268.707149" y="284.588201" style="fill: #d03b3b; stroke: #d03b3b"/>
     <use xlink:href="#ma712981682" x="303.091446" y="284.187902" style="fill: #d03b3b; stroke: #d03b3b"/>
     <use xlink:href="#ma712981682" x="337.475744" y="285.296162" style="fill: #d03b3b; stroke: #d03b3b"/>
     <use xlink:href="#ma712981682" x="371.860041" y="285.501047" style="fill: #d03b3b; stroke: #d03b3b"/>
     <use xlink:href="#ma712981682" x="406.244339" y="279.288826" style="fill: #d03b3b; stroke: #d03b3b"/>
     <use xlink:href="#ma712981682" x="440.628636" y="271.947324" style="fill: #d03b3b; stroke: #d03b3b"/>
    </g>
   </g>
   <g id="line2d_22">
    <path d="M 354.667893 339.608 
L 354.667893 72.528 
" clip-path="url(#pf75cdf8315)" style="fill: none; stroke-dasharray: 2.96,1.28; stroke-dashoffset: 0; stroke: #898781; stroke-width: 0.8"/>
   </g>
   <g id="patch_3">
    <path d="M 43.49 339.608 
L 43.49 72.528 
" style="fill: none; stroke: #c3c2b7; stroke-width: 0.8; stroke-linejoin: miter; stroke-linecap: square"/>
   </g>
   <g id="patch_4">
    <path d="M 43.49 339.608 
L 459.54 339.608 
" style="fill: none; stroke: #c3c2b7; stroke-width: 0.8; stroke-linejoin: miter; stroke-linecap: square"/>
   </g>
   <g id="text_11">
    <text style="font-size: 8px; font-family: 'Segoe UI', 'DejaVu Sans'; text-anchor: start; fill: #898781" x="358.106322" y="86.70366" transform="rotate(-0 358.106322 86.70366)">V21 | V22</text>
   </g>
   <g id="text_12">
    <text style="font-weight: 700; font-size: 11.5px; font-family: 'Segoe UI', 'DejaVu Sans'; text-anchor: start; fill: #0b0b0b" x="43.49" y="66.528" transform="rotate(-0 43.49 66.528)">1. Raw radiance: everything brightens</text>
   </g>
  </g>
  <g id="axes_2">
   <g id="patch_5">
    <path d="M 510.59 339.608 
L 926.64 339.608 
L 926.64 72.528 
L 510.59 72.528 
z
" style="fill: #ffffff"/>
   </g>
   <g id="matplotlib.axis_3">
    <g id="xtick_6">
     <g id="line2d_23">
      <path d="M 529.501364 339.608 
L 529.501364 72.528 
" clip-path="url(#p7e2390172c)" style="fill: none; stroke: #e1e0d9; stroke-width: 0.6; stroke-linecap: square"/>
     </g>
     <g id="line2d_24">
      <g>
       <use xlink:href="#m66def40f16" x="529.501364" y="339.608" style="fill: #52514e; stroke: #52514e; stroke-width: 0.8"/>
      </g>
     </g>
     <g id="text_13">
      <text style="font-size: 10px; font-family: 'Segoe UI', 'DejaVu Sans'; text-anchor: middle; fill: #52514e" x="529.501364" y="354.011125" transform="rotate(-0 529.501364 354.011125)">2013</text>
     </g>
    </g>
    <g id="xtick_7">
     <g id="line2d_25">
      <path d="M 632.654256 339.608 
L 632.654256 72.528 
" clip-path="url(#p7e2390172c)" style="fill: none; stroke: #e1e0d9; stroke-width: 0.6; stroke-linecap: square"/>
     </g>
     <g id="line2d_26">
      <g>
       <use xlink:href="#m66def40f16" x="632.654256" y="339.608" style="fill: #52514e; stroke: #52514e; stroke-width: 0.8"/>
      </g>
     </g>
     <g id="text_14">
      <text style="font-size: 10px; font-family: 'Segoe UI', 'DejaVu Sans'; text-anchor: middle; fill: #52514e" x="632.654256" y="354.011125" transform="rotate(-0 632.654256 354.011125)">2016</text>
     </g>
    </g>
    <g id="xtick_8">
     <g id="line2d_27">
      <path d="M 735.807149 339.608 
L 735.807149 72.528 
" clip-path="url(#p7e2390172c)" style="fill: none; stroke: #e1e0d9; stroke-width: 0.6; stroke-linecap: square"/>
     </g>
     <g id="line2d_28">
      <g>
       <use xlink:href="#m66def40f16" x="735.807149" y="339.608" style="fill: #52514e; stroke: #52514e; stroke-width: 0.8"/>
      </g>
     </g>
     <g id="text_15">
      <text style="font-size: 10px; font-family: 'Segoe UI', 'DejaVu Sans'; text-anchor: middle; fill: #52514e" x="735.807149" y="354.011125" transform="rotate(-0 735.807149 354.011125)">2019</text>
     </g>
    </g>
    <g id="xtick_9">
     <g id="line2d_29">
      <path d="M 838.960041 339.608 
L 838.960041 72.528 
" clip-path="url(#p7e2390172c)" style="fill: none; stroke: #e1e0d9; stroke-width: 0.6; stroke-linecap: square"/>
     </g>
     <g id="line2d_30">
      <g>
       <use xlink:href="#m66def40f16" x="838.960041" y="339.608" style="fill: #52514e; stroke: #52514e; stroke-width: 0.8"/>
      </g>
     </g>
     <g id="text_16">
      <text style="font-size: 10px; font-family: 'Segoe UI', 'DejaVu Sans'; text-anchor: middle; fill: #52514e" x="838.960041" y="354.011125" transform="rotate(-0 838.960041 354.011125)">2022</text>
     </g>
    </g>
    <g id="xtick_10">
     <g id="line2d_31">
      <path d="M 907.728636 339.608 
L 907.728636 72.528 
" clip-path="url(#p7e2390172c)" style="fill: none; stroke: #e1e0d9; stroke-width: 0.6; stroke-linecap: square"/>
     </g>
     <g id="line2d_32">
      <g>
       <use xlink:href="#m66def40f16" x="907.728636" y="339.608" style="fill: #52514e; stroke: #52514e; stroke-width: 0.8"/>
      </g>
     </g>
     <g id="text_17">
      <text style="font-size: 10px; font-family: 'Segoe UI', 'DejaVu Sans'; text-anchor: middle; fill: #52514e" x="907.728636" y="354.011125" transform="rotate(-0 907.728636 354.011125)">2024</text>
     </g>
    </g>
   </g>
   <g id="matplotlib.axis_4">
    <g id="ytick_5">
     <g id="line2d_33">
      <path d="M 510.59 312.522119 
L 926.64 312.522119 
" clip-path="url(#p7e2390172c)" style="fill: none; stroke: #e1e0d9; stroke-width: 0.6; stroke-linecap: square"/>
     </g>
     <g id="line2d_34">
      <g>
       <use xlink:href="#m57066c472d" x="510.59" y="312.522119" style="fill: #52514e; stroke: #52514e; stroke-width: 0.8"/>
      </g>
     </g>
     <g id="text_18">
      <text style="font-size: 10px; font-family: 'Segoe UI', 'DejaVu Sans'; text-anchor: end; fill: #52514e" x="503.59" y="316.223682" transform="rotate(-0 503.59 316.223682)">−2.0</text>
     </g>
    </g>
    <g id="ytick_6">
     <g id="line2d_35">
      <path d="M 510.59 255.558589 
L 926.64 255.558589 
" clip-path="url(#p7e2390172c)" style="fill: none; stroke: #e1e0d9; stroke-width: 0.6; stroke-linecap: square"/>
     </g>
     <g id="line2d_36">
      <g>
       <use xlink:href="#m57066c472d" x="510.59" y="255.558589" style="fill: #52514e; stroke: #52514e; stroke-width: 0.8"/>
      </g>
     </g>
     <g id="text_19">
      <text style="font-size: 10px; font-family: 'Segoe UI', 'DejaVu Sans'; text-anchor: end; fill: #52514e" x="503.59" y="259.260152" transform="rotate(-0 503.59 259.260152)">−1.5</text>
     </g>
    </g>
    <g id="ytick_7">
     <g id="line2d_37">
      <path d="M 510.59 198.59506 
L 926.64 198.59506 
" clip-path="url(#p7e2390172c)" style="fill: none; stroke: #e1e0d9; stroke-width: 0.6; stroke-linecap: square"/>
     </g>
     <g id="line2d_38">
      <g>
       <use xlink:href="#m57066c472d" x="510.59" y="198.59506" style="fill: #52514e; stroke: #52514e; stroke-width: 0.8"/>
      </g>
     </g>
     <g id="text_20">
      <text style="font-size: 10px; font-family: 'Segoe UI', 'DejaVu Sans'; text-anchor: end; fill: #52514e" x="503.59" y="202.296622" transform="rotate(-0 503.59 202.296622)">−1.0</text>
     </g>
    </g>
    <g id="ytick_8">
     <g id="line2d_39">
      <path d="M 510.59 141.63153 
L 926.64 141.63153 
" clip-path="url(#p7e2390172c)" style="fill: none; stroke: #e1e0d9; stroke-width: 0.6; stroke-linecap: square"/>
     </g>
     <g id="line2d_40">
      <g>
       <use xlink:href="#m57066c472d" x="510.59" y="141.63153" style="fill: #52514e; stroke: #52514e; stroke-width: 0.8"/>
      </g>
     </g>
     <g id="text_21">
      <text style="font-size: 10px; font-family: 'Segoe UI', 'DejaVu Sans'; text-anchor: end; fill: #52514e" x="503.59" y="145.333092" transform="rotate(-0 503.59 145.333092)">−0.5</text>
     </g>
    </g>
    <g id="ytick_9">
     <g id="line2d_41">
      <path d="M 510.59 84.668 
L 926.64 84.668 
" clip-path="url(#p7e2390172c)" style="fill: none; stroke: #e1e0d9; stroke-width: 0.6; stroke-linecap: square"/>
     </g>
     <g id="line2d_42">
      <g>
       <use xlink:href="#m57066c472d" x="510.59" y="84.668" style="fill: #52514e; stroke: #52514e; stroke-width: 0.8"/>
      </g>
     </g>
     <g id="text_22">
      <text style="font-size: 10px; font-family: 'Segoe UI', 'DejaVu Sans'; text-anchor: end; fill: #52514e" x="503.59" y="88.369562" transform="rotate(-0 503.59 88.369562)">0.0</text>
     </g>
    </g>
    <g id="text_23">
     <text style="font-size: 10px; font-family: 'Segoe UI', 'DejaVu Sans'; text-anchor: middle; fill: #52514e" x="477.44625" y="206.068" transform="rotate(-90 477.44625 206.068)">log radiance minus the city's median</text>
    </g>
   </g>
   <g id="line2d_43">
    <path d="M 529.501364 84.668 
L 563.885661 84.668 
L 598.269959 84.668 
L 632.654256 84.668 
L 667.038554 84.668 
L 701.422851 84.668 
L 735.807149 84.668 
L 770.191446 84.668 
L 804.575744 84.668 
L 838.960041 84.668 
L 873.344339 84.668 
L 907.728636 84.668 
" clip-path="url(#p7e2390172c)" style="fill: none; stroke: #52514e; stroke-width: 2; stroke-linecap: square"/>
    <g clip-path="url(#p7e2390172c)">
     <use xlink:href="#mf8e2c6997d" x="529.501364" y="84.668" style="fill: #52514e; stroke: #52514e"/>
     <use xlink:href="#mf8e2c6997d" x="563.885661" y="84.668" style="fill: #52514e; stroke: #52514e"/>
     <use xlink:href="#mf8e2c6997d" x="598.269959" y="84.668" style="fill: #52514e; stroke: #52514e"/>
     <use xlink:href="#mf8e2c6997d" x="632.654256" y="84.668" style="fill: #52514e; stroke: #52514e"/>
     <use xlink:href="#mf8e2c6997d" x="667.038554" y="84.668" style="fill: #52514e; stroke: #52514e"/>
     <use xlink:href="#mf8e2c6997d" x="701.422851" y="84.668" style="fill: #52514e; stroke: #52514e"/>
     <use xlink:href="#mf8e2c6997d" x="735.807149" y="84.668" style="fill: #52514e; stroke: #52514e"/>
     <use xlink:href="#mf8e2c6997d" x="770.191446" y="84.668" style="fill: #52514e; stroke: #52514e"/>
     <use xlink:href="#mf8e2c6997d" x="804.575744" y="84.668" style="fill: #52514e; stroke: #52514e"/>
     <use xlink:href="#mf8e2c6997d" x="838.960041" y="84.668" style="fill: #52514e; stroke: #52514e"/>
     <use xlink:href="#mf8e2c6997d" x="873.344339" y="84.668" style="fill: #52514e; stroke: #52514e"/>
     <use xlink:href="#mf8e2c6997d" x="907.728636" y="84.668" style="fill: #52514e; stroke: #52514e"/>
    </g>
   </g>
   <g id="line2d_44">
    <path d="M 529.501364 327.468 
L 563.885661 295.03466 
L 598.269959 294.1257 
L 632.654256 288.798461 
L 667.038554 246.960667 
L 701.422851 253.08345 
L 735.807149 254.00629 
L 770.191446 249.376063 
L 804.575744 247.488961 
L 838.960041 246.592061 
L 873.344339 250.388824 
L 907.728636 251.314557 
" clip-path="url(#p7e2390172c)" style="fill: none; stroke: #eda100; stroke-width: 2; stroke-linecap: square"/>
    <g clip-path="url(#p7e2390172c)">
     <use xlink:href="#m6f57e22292" x="529.501364" y="327.468" style="fill: #eda100; stroke: #eda100"/>
     <use xlink:href="#m6f57e22292" x="563.885661" y="295.03466" style="fill: #eda100; stroke: #eda100"/>
     <use xlink:href="#m6f57e22292" x="598.269959" y="294.1257" style="fill: #eda100; stroke: #eda100"/>
     <use xlink:href="#m6f57e22292" x="632.654256" y="288.798461" style="fill: #eda100; stroke: #eda100"/>
     <use xlink:href="#m6f57e22292" x="667.038554" y="246.960667" style="fill: #eda100; stroke: #eda100"/>
     <use xlink:href="#m6f57e22292" x="701.422851" y="253.08345" style="fill: #eda100; stroke: #eda100"/>
     <use xlink:href="#m6f57e22292" x="735.807149" y="254.00629" style="fill: #eda100; stroke: #eda100"/>
     <use xlink:href="#m6f57e22292" x="770.191446" y="249.376063" style="fill: #eda100; stroke: #eda100"/>
     <use xlink:href="#m6f57e22292" x="804.575744" y="247.488961" style="fill: #eda100; stroke: #eda100"/>
     <use xlink:href="#m6f57e22292" x="838.960041" y="246.592061" style="fill: #eda100; stroke: #eda100"/>
     <use xlink:href="#m6f57e22292" x="873.344339" y="250.388824" style="fill: #eda100; stroke: #eda100"/>
     <use xlink:href="#m6f57e22292" x="907.728636" y="251.314557" style="fill: #eda100; stroke: #eda100"/>
    </g>
   </g>
   <g id="line2d_45">
    <path d="M 529.501364 225.164434 
L 563.885661 213.83883 
L 598.269959 212.116263 
L 632.654256 214.42502 
L 667.038554 202.459403 
L 701.422851 203.780715 
L 735.807149 212.77738 
L 770.191446 210.437101 
L 804.575744 211.173173 
L 838.960041 215.479122 
L 873.344339 217.006989 
L 907.728636 221.15177 
" clip-path="url(#p7e2390172c)" style="fill: none; stroke: #d03b3b; stroke-width: 2; stroke-linecap: square"/>
    <g clip-path="url(#p7e2390172c)">
     <use xlink:href="#ma712981682" x="529.501364" y="225.164434" style="fill: #d03b3b; stroke: #d03b3b"/>
     <use xlink:href="#ma712981682" x="563.885661" y="213.83883" style="fill: #d03b3b; stroke: #d03b3b"/>
     <use xlink:href="#ma712981682" x="598.269959" y="212.116263" style="fill: #d03b3b; stroke: #d03b3b"/>
     <use xlink:href="#ma712981682" x="632.654256" y="214.42502" style="fill: #d03b3b; stroke: #d03b3b"/>
     <use xlink:href="#ma712981682" x="667.038554" y="202.459403" style="fill: #d03b3b; stroke: #d03b3b"/>
     <use xlink:href="#ma712981682" x="701.422851" y="203.780715" style="fill: #d03b3b; stroke: #d03b3b"/>
     <use xlink:href="#ma712981682" x="735.807149" y="212.77738" style="fill: #d03b3b; stroke: #d03b3b"/>
     <use xlink:href="#ma712981682" x="770.191446" y="210.437101" style="fill: #d03b3b; stroke: #d03b3b"/>
     <use xlink:href="#ma712981682" x="804.575744" y="211.173173" style="fill: #d03b3b; stroke: #d03b3b"/>
     <use xlink:href="#ma712981682" x="838.960041" y="215.479122" style="fill: #d03b3b; stroke: #d03b3b"/>
     <use xlink:href="#ma712981682" x="873.344339" y="217.006989" style="fill: #d03b3b; stroke: #d03b3b"/>
     <use xlink:href="#ma712981682" x="907.728636" y="221.15177" style="fill: #d03b3b; stroke: #d03b3b"/>
    </g>
   </g>
   <g id="line2d_46">
    <path d="M 821.767893 339.608 
L 821.767893 72.528 
" clip-path="url(#p7e2390172c)" style="fill: none; stroke-dasharray: 2.96,1.28; stroke-dashoffset: 0; stroke: #898781; stroke-width: 0.8"/>
   </g>
   <g id="line2d_47">
    <path d="M 510.59 84.668 
L 926.64 84.668 
" clip-path="url(#p7e2390172c)" style="fill: none; stroke: #52514e; stroke-width: 0.9; stroke-linecap: square"/>
   </g>
   <g id="patch_6">
    <path d="M 510.59 339.608 
L 510.59 72.528 
" style="fill: none; stroke: #c3c2b7; stroke-width: 0.8; stroke-linejoin: miter; stroke-linecap: square"/>
   </g>
   <g id="patch_7">
    <path d="M 510.59 339.608 
L 926.64 339.608 
" style="fill: none; stroke: #c3c2b7; stroke-width: 0.8; stroke-linejoin: miter; stroke-linecap: square"/>
   </g>
   <g id="text_24">
    <text style="font-weight: 700; font-size: 11.5px; font-family: 'Segoe UI', 'DejaVu Sans'; text-anchor: start; fill: #0b0b0b" x="510.59" y="66.528" transform="rotate(-0 510.59 66.528)">2. Relative to the city: who is catching up</text>
   </g>
   <g id="legend_1">
    <g id="line2d_48">
     <path d="M 778.550078 301.897219 
L 787.050078 301.897219 
L 795.550078 301.897219 
" style="fill: none; stroke: #52514e; stroke-width: 2; stroke-linecap: square"/>
     <g>
      <use xlink:href="#mf8e2c6997d" x="787.050078" y="301.897219" style="fill: #52514e; stroke: #52514e"/>
     </g>
    </g>
    <g id="text_25">
     <text style="font-size: 8.5px; font-family: 'Segoe UI', 'DejaVu Sans'; text-anchor: start" x="802.350078" y="304.872219" transform="rotate(-0 802.350078 304.872219)">established city (urban in 2010)</text>
    </g>
    <g id="line2d_49">
     <path d="M 778.550078 314.440031 
L 787.050078 314.440031 
L 795.550078 314.440031 
" style="fill: none; stroke: #eda100; stroke-width: 2; stroke-linecap: square"/>
     <g>
      <use xlink:href="#m6f57e22292" x="787.050078" y="314.440031" style="fill: #eda100; stroke: #eda100"/>
     </g>
    </g>
    <g id="text_26">
     <text style="font-size: 8.5px; font-family: 'Segoe UI', 'DejaVu Sans'; text-anchor: start" x="802.350078" y="317.415031" transform="rotate(-0 802.350078 317.415031)">emerging cells</text>
    </g>
    <g id="line2d_50">
     <path d="M 778.550078 326.982844 
L 787.050078 326.982844 
L 795.550078 326.982844 
" style="fill: none; stroke: #d03b3b; stroke-width: 2; stroke-linecap: square"/>
     <g>
      <use xlink:href="#ma712981682" x="787.050078" y="326.982844" style="fill: #d03b3b; stroke: #d03b3b"/>
     </g>
    </g>
    <g id="text_27">
     <text style="font-size: 8.5px; font-family: 'Segoe UI', 'DejaVu Sans'; text-anchor: start" x="802.350078" y="329.957844" transform="rotate(-0 802.350078 329.957844)">ghost-growth cells</text>
    </g>
   </g>
  </g>
  <g id="text_28">
   <text style="font-size: 9px; font-family: 'Segoe UI', 'DejaVu Sans'; text-anchor: start; fill: #52514e" x="10.8" y="377.136" transform="rotate(-0 10.8 377.136)">Rule: a new, under-used cell is 'emerging' when the trend in panel 2 is positive with p &lt;= 0.10; a citywide rise or a product-version step cancels out. Medians over 100 m cells.</text>
  </g>
  <g id="text_29">
   <text style="font-weight: 700; font-size: 15px; font-family: 'Segoe UI', 'DejaVu Sans'; text-anchor: start; fill: #0b0b0b" x="10.8" y="21.904687" transform="rotate(-0 10.8 21.904687)">Why the night-light trend is measured relative to the city</text>
  </g>
 </g>
 <defs>
  <clipPath id="pf75cdf8315">
   <rect x="43.49" y="72.528" width="416.05" height="267.08"/>
  </clipPath>
  <clipPath id="p7e2390172c">
   <rect x="510.59" y="72.528" width="416.05" height="267.08"/>
  </clipPath>
 </defs>
</svg>
